#N canvas 560 298 464 178 10;
#N canvas 740 649 450 203 usequence 0;
#X obj 21 41 switch~;
#X obj 21 20 r usequence_switch1;
#X obj 21 140 usequencespatializer 1;
#X obj 21 120 usequencestopper 1;
#X obj 21 79 usequencestepper 1;
#X obj 21 160 usequenceoutput 1;
#N canvas 43 653 311 113 utrack 0;
#X obj 23 65 outlet~ left;
#X obj 103 65 outlet~ right;
#X obj 23 44 ../../Instruments/lead;
#X obj 23 24 usequencemessager 1 1;
#X connect 2 0 0 0;
#X connect 2 1 1 0;
#X connect 3 0 2 0;
#X connect 3 1 2 1;
#X restore 21 99 pd utrack lead;
#X connect 6 0 2 0;
#X connect 6 1 2 1;
#X connect 6 0 3 0;
#X connect 6 1 3 0;
#N canvas 43 653 311 113 utrack 0;
#X obj 23 65 outlet~ left;
#X obj 103 65 outlet~ right;
#X obj 23 44 ../../Instruments/bass;
#X obj 23 24 usequencemessager 1 2;
#X connect 2 0 0 0;
#X connect 2 1 1 0;
#X connect 3 0 2 0;
#X connect 3 1 2 1;
#X restore 21 99 pd utrack bass;
#X connect 7 0 2 0;
#X connect 7 1 2 1;
#X connect 7 0 3 0;
#X connect 7 1 3 0;
#N canvas 43 653 311 113 utrack 0;
#X obj 23 65 outlet~ left;
#X obj 103 65 outlet~ right;
#X obj 23 44 ../../Instruments/hihat;
#X obj 23 24 usequencemessager 1 3;
#X connect 2 0 0 0;
#X connect 2 1 1 0;
#X connect 3 0 2 0;
#X connect 3 1 2 1;
#X restore 21 99 pd utrack hihat;
#X connect 8 0 2 0;
#X connect 8 1 2 1;
#X connect 8 0 3 0;
#X connect 8 1 3 0;
#N canvas 43 653 311 113 utrack 0;
#X obj 23 65 outlet~ left;
#X obj 103 65 outlet~ right;
#X obj 23 44 ../../Instruments/snare;
#X obj 23 24 usequencemessager 1 4;
#X connect 2 0 0 0;
#X connect 2 1 1 0;
#X connect 3 0 2 0;
#X connect 3 1 2 1;
#X restore 21 99 pd utrack snare;
#X connect 9 0 2 0;
#X connect 9 1 2 1;
#X connect 9 0 3 0;
#X connect 9 1 3 0;
#N canvas 43 653 311 113 utrack 0;
#X obj 23 65 outlet~ left;
#X obj 103 65 outlet~ right;
#X obj 23 44 ../../Instruments/kick;
#X obj 23 24 usequencemessager 1 5;
#X connect 2 0 0 0;
#X connect 2 1 1 0;
#X connect 3 0 2 0;
#X connect 3 1 2 1;
#X restore 21 99 pd utrack kick;
#X connect 10 0 2 0;
#X connect 10 1 2 1;
#X connect 10 0 3 0;
#X connect 10 1 3 0;
#X connect 1 0 0 0;
#X connect 2 0 5 0;
#X connect 2 1 5 1;
#X connect 6 0 3 0;
#X connect 6 0 2 0;
#X connect 6 1 3 0;
#X connect 6 1 2 1;
#X restore 22 19 pd usequence Music;
