#N canvas 432 181 547 300 10;
#X declare -path ../Data -path ../Effects -path ../Misc -path ../Signal
-path ../Sources -path ../Unity;
#X declare -path ../Signal;
#X obj 22 266 outlet~ left;
#X obj 102 266 outlet~ right;
#X obj 22 13 declare -path ../Data -path ../Effects -path ../Misc -path
../Signal -path ../Sources -path ../Unity;
#X obj 22 46 inlet patterns;
#X obj 286 46 inlet messages;
#X obj 286 66 route Play Stop Step Sleep;
#X obj 22 177 square~;
#X obj 22 157 mtof;
#X obj 22 137 + 60;
#X obj 22 197 ADSR~ 10 100;
#X obj 22 117 t f b;
#X obj 22 217 *~ 0.1;
#X connect 3 0 10 0;
#X connect 4 0 5 0;
#X connect 6 0 9 0;
#X connect 7 0 6 0;
#X connect 8 0 7 0;
#X connect 9 0 11 0;
#X connect 10 0 8 0;
#X connect 10 1 9 1;
#X connect 11 0 0 0;
#X connect 11 0 1 0;
