#N canvas 230 181 547 304 10;
#X declare -path ../Data -path ../Effects -path ../Misc -path ../Signal
-path ../Sources -path ../Unity;
#X declare -path ../Signal;
#X declare -path ../Signal;
#X obj 22 268 outlet~ left;
#X obj 102 268 outlet~ right;
#X obj 22 13 declare -path ../Data -path ../Effects -path ../Misc -path
../Signal -path ../Sources -path ../Unity;
#X obj 22 46 inlet patterns;
#X obj 286 46 inlet messages;
#X obj 286 66 route Play Stop Step Sleep;
#X obj 22 217 ADSR~ 10 100;
#X obj 22 177 mtof;
#X msg 118 133 10 \$1;
#X obj 91 93 sel 0;
#X obj 91 113 t b f;
#X obj 22 157 + 36;
#X obj 92 177 mtof;
#X obj 92 157 + 24;
#X obj 22 197 triangle~;
#X obj 92 197 sawtooth~;
#X obj 22 76 unpack f f;
#X obj 22 237 *~ 0.75;
#X text 21 -8 Input: Note (midi) \, Decay (ms);
#X connect 3 0 16 0;
#X connect 4 0 5 0;
#X connect 6 0 17 0;
#X connect 7 0 14 0;
#X connect 8 0 6 1;
#X connect 9 1 10 0;
#X connect 10 0 6 1;
#X connect 10 1 8 0;
#X connect 11 0 7 0;
#X connect 12 0 15 0;
#X connect 13 0 12 0;
#X connect 14 0 6 0;
#X connect 16 0 11 0;
#X connect 16 0 13 0;
#X connect 16 1 9 0;
#X connect 17 0 0 0;
#X connect 17 0 1 0;
