#N canvas 688 272 547 300 10;
#X declare -path ../Data -path ../Effects -path ../Misc -path ../Signal
-path ../Sources -path ../Unity;
#X declare -path ../Signal;
#X declare -path ../Signal;
#X obj 22 267 outlet~ left;
#X obj 102 267 outlet~ right;
#X obj 22 13 declare -path ../Data -path ../Effects -path ../Misc -path
../Signal -path ../Sources -path ../Unity;
#X obj 22 46 inlet patterns;
#X obj 286 46 inlet messages;
#X obj 286 66 route Play Stop Step Sleep;
#X text 21 -7 Input: Decay (ms);
#X obj 22 141 noise~;
#X obj 22 76 sel 0;
#X obj 136 122 t b f;
#X obj 22 244 autopan~ 4 1;
#X obj 22 223 *~ 0.05;
#X msg 163 142 10 50 0.25 \$1 \$1;
#X obj 22 162 ADSR~ 10 50 0.25 500 500;
#X obj 22 183 tremolo~ 40 1;
#X obj 22 203 lop~ 1000;
#X connect 3 0 8 0;
#X connect 4 0 5 0;
#X connect 7 0 13 0;
#X connect 8 1 9 0;
#X connect 9 0 13 1;
#X connect 9 1 12 0;
#X connect 10 0 0 0;
#X connect 10 1 1 0;
#X connect 11 0 10 0;
#X connect 12 0 13 1;
#X connect 13 0 14 0;
#X connect 14 0 15 0;
#X connect 15 0 11 0;
