#N canvas 736 81 547 300 10;
#X declare -path ../Data -path ../Effects -path ../Misc -path ../Signal
-path ../Sources -path ../Unity;
#X declare -path ../Signal;
#X declare -path ../Signal;
#X obj 22 266 outlet~ left;
#X obj 102 266 outlet~ right;
#X obj 22 13 declare -path ../Data -path ../Effects -path ../Misc -path
../Signal -path ../Sources -path ../Unity;
#X obj 22 46 inlet patterns;
#X obj 286 46 inlet messages;
#X obj 286 66 route Play Stop Step Sleep;
#X obj 22 216 ADSR~ 10 50;
#X obj 22 67 sel 0;
#X obj 22 97 t b f;
#X msg 178 199 10 \$1;
#X obj 22 137 vline~;
#X obj 22 196 triangle~;
#X msg 22 117 500 0 \, 60 20;
#X obj 112 137 vline~;
#X obj 112 196 triangle~;
#X msg 112 117 2000 0 \, 80 5;
#X text 21 -8 Input: Decay (ms);
#X obj 22 236 *~ 0.15;
#X connect 3 0 7 0;
#X connect 4 0 5 0;
#X connect 6 0 17 0;
#X connect 7 1 8 0;
#X connect 8 0 6 1;
#X connect 8 0 12 0;
#X connect 8 0 15 0;
#X connect 8 1 9 0;
#X connect 9 0 6 1;
#X connect 10 0 11 0;
#X connect 11 0 6 0;
#X connect 12 0 10 0;
#X connect 13 0 14 0;
#X connect 14 0 6 0;
#X connect 15 0 13 0;
#X connect 17 0 0 0;
#X connect 17 0 1 0;
