#N canvas 442 232 547 354 10;
#X declare -path ../Data -path ../Effects -path ../Misc -path ../Signal
-path ../Sources -path ../Unity;
#X declare -path ../Signal;
#X declare -path ../Data;
#X obj 22 310 outlet~ left;
#X obj 102 310 outlet~ right;
#X obj 22 13 declare -path ../Data -path ../Effects -path ../Misc -path
../Signal -path ../Sources -path ../Unity;
#X obj 22 46 inlet patterns;
#X obj 286 46 inlet messages;
#X obj 286 66 route Play Stop Step Sleep;
#X obj 22 176 fm~;
#X obj 58 96 sel 0;
#X obj 22 76 unpack f f;
#X obj 22 196 ADSR~ 10 50;
#X msg 85 136 10 \$1;
#X obj 85 116 t b f;
#X obj 22 116 mtof;
#X msg 22 136 \$1 100;
#X obj 22 156 line~;
#X obj 22 259 blend~ -0.5;
#X obj 52 239 reverb~ 0.5 0.3;
#X obj 22 217 echo~ 260 0.7;
#X obj 22 279 *~ 0.1;
#X text 21 -8 Input: Note (midi) \, Decay (ms);
#X obj 22 96 + 84;
#X obj 67 160 LFO~ 0.1 200 700;
#X connect 3 0 8 0;
#X connect 4 0 5 0;
#X connect 6 0 9 0;
#X connect 7 1 11 0;
#X connect 8 0 20 0;
#X connect 8 1 7 0;
#X connect 9 0 16 0;
#X connect 9 0 15 0;
#X connect 9 0 17 0;
#X connect 10 0 9 1;
#X connect 11 0 9 1;
#X connect 11 1 10 0;
#X connect 12 0 13 0;
#X connect 13 0 14 0;
#X connect 14 0 6 0;
#X connect 15 0 18 0;
#X connect 16 0 15 1;
#X connect 17 0 15 0;
#X connect 18 0 0 0;
#X connect 18 0 1 0;
#X connect 20 0 12 0;
#X connect 21 0 6 1;
#X connect 21 0 6 2;
