#N canvas 450 189 547 352 10;
#X declare -path ../Data -path ../Effects -path ../Misc -path ../Signal
-path ../Sources -path ../Unity;
#X declare -path ../Signal;
#X declare -path ../Signal;
#X declare -path ../Signal;
#X declare -path ../Signal;
#X declare -path ../Signal;
#X declare -path ../Signal;
#X declare -path ../Signal;
#X declare -path ../Signal;
#X declare -path ../Signal;
#X declare -path ../Signal;
#X declare -path ../Signal;
#X declare -path ../Signal;
#X declare -path ../Signal;
#X obj 22 287 outlet~ left;
#X obj 122 287 outlet~ right;
#X obj 22 13 declare -path ../Data -path ../Effects -path ../Misc -path
../Signal -path ../Sources -path ../Unity;
#X obj 22 46 inlet patterns;
#X obj 286 46 inlet messages;
#X obj 286 66 route Play Stop Step Sleep;
#X text 21 -8 Input:;
#X obj 22 77 sel -1000;
#X msg 306 207 0;
#X obj 306 249 line~;
#X obj 122 265 *~;
#X obj 22 265 *~;
#X obj 22 142 mtof;
#X obj 73 96 t f b;
#X msg 335 207 1;
#X msg 306 228 \$1 500;
#N canvas 259 203 867 364 osc12 1;
#X obj 24 121 inlet~;
#X obj 24 259 outlet~;
#X obj 343 178 *~ 1.01;
#X obj 393 178 *~ 1.02;
#X obj 443 178 *~ 1.03;
#X obj 493 178 *~ 1.04;
#X obj 543 178 *~ 1.05;
#X obj 593 178 *~ 1.06;
#X obj 93 178 *~ 0.95;
#X obj 143 178 *~ 0.96;
#X obj 193 178 *~ 0.97;
#X obj 243 178 *~ 0.98;
#X obj 293 178 *~ 0.99;
#X obj 132 -46 inlet;
#X obj 151 15 * -1;
#X obj 151 -6 abs;
#X obj 132 -27 t b f f;
#X obj 132 55 pack f f;
#X obj 132 82 randomrange 0 0 5;
#X obj 177 -6 abs;
#X obj 182 102 randomrange 0 0 5;
#X obj 232 122 randomrange 0 0 5;
#X obj 282 82 randomrange 0 0 5;
#X obj 332 102 randomrange 0 0 5;
#X obj 382 122 randomrange 0 0 5;
#X obj 432 82 randomrange 0 0 5;
#X obj 482 102 randomrange 0 0 5;
#X obj 532 122 randomrange 0 0 5;
#X obj 582 82 randomrange 0 0 5;
#X obj 632 102 randomrange 0 0 5;
#X obj 177 35 + 1;
#X obj 151 35 + 1;
#X obj 24 197 triangle~;
#X obj 93 197 triangle~;
#X obj 143 197 triangle~;
#X obj 193 197 triangle~;
#X obj 243 197 triangle~;
#X obj 293 197 triangle~;
#X obj 343 197 triangle~;
#X obj 393 197 triangle~;
#X obj 443 197 triangle~;
#X obj 493 197 triangle~;
#X obj 543 197 triangle~;
#X obj 593 197 triangle~;
#X connect 0 0 8 0;
#X connect 0 0 9 0;
#X connect 0 0 10 0;
#X connect 0 0 11 0;
#X connect 0 0 12 0;
#X connect 0 0 2 0;
#X connect 0 0 3 0;
#X connect 0 0 4 0;
#X connect 0 0 5 0;
#X connect 0 0 6 0;
#X connect 0 0 7 0;
#X connect 0 0 32 0;
#X connect 2 0 38 0;
#X connect 3 0 39 0;
#X connect 4 0 40 0;
#X connect 5 0 41 0;
#X connect 6 0 42 0;
#X connect 7 0 43 0;
#X connect 8 0 33 0;
#X connect 9 0 34 0;
#X connect 10 0 35 0;
#X connect 11 0 36 0;
#X connect 12 0 37 0;
#X connect 13 0 16 0;
#X connect 14 0 31 0;
#X connect 15 0 14 0;
#X connect 16 0 18 0;
#X connect 16 0 20 0;
#X connect 16 0 21 0;
#X connect 16 0 22 0;
#X connect 16 0 23 0;
#X connect 16 0 24 0;
#X connect 16 0 25 0;
#X connect 16 0 26 0;
#X connect 16 0 27 0;
#X connect 16 0 28 0;
#X connect 16 0 29 0;
#X connect 16 1 15 0;
#X connect 16 2 19 0;
#X connect 17 0 18 0;
#X connect 17 0 21 0;
#X connect 17 0 20 0;
#X connect 17 0 22 0;
#X connect 17 0 23 0;
#X connect 17 0 24 0;
#X connect 17 0 25 0;
#X connect 17 0 26 0;
#X connect 17 0 27 0;
#X connect 17 0 28 0;
#X connect 17 0 29 0;
#X connect 18 0 8 1;
#X connect 19 0 30 0;
#X connect 20 0 9 1;
#X connect 21 0 10 1;
#X connect 22 0 11 1;
#X connect 23 0 12 1;
#X connect 24 0 2 1;
#X connect 25 0 3 1;
#X connect 26 0 4 1;
#X connect 27 0 5 1;
#X connect 28 0 6 1;
#X connect 29 0 7 1;
#X connect 30 0 17 1;
#X connect 31 0 17 0;
#X connect 32 0 1 0;
#X connect 33 0 1 0;
#X connect 34 0 1 0;
#X connect 35 0 1 0;
#X connect 36 0 1 0;
#X connect 37 0 1 0;
#X connect 38 0 1 0;
#X connect 39 0 1 0;
#X connect 40 0 1 0;
#X connect 41 0 1 0;
#X connect 42 0 1 0;
#X connect 43 0 1 0;
#X restore 22 204 pd osc12;
#X obj 22 224 autopan~ 0.3 1;
#X obj 167 74 loadbang;
#X obj 167 114 randomrange 0 1 5;
#X obj 22 245 *~ 0.02;
#X obj 122 245 *~ 0.02;
#X obj 167 94 randomrange 0 0.025 5;
#X obj 22 113 + 36;
#X connect 3 0 7 0;
#X connect 4 0 5 0;
#X connect 7 0 8 0;
#X connect 7 0 19 0;
#X connect 7 0 22 0;
#X connect 7 1 13 0;
#X connect 8 0 15 0;
#X connect 9 0 10 1;
#X connect 9 0 11 1;
#X connect 10 0 1 0;
#X connect 11 0 0 0;
#X connect 12 0 16 0;
#X connect 13 0 23 0;
#X connect 13 1 14 0;
#X connect 14 0 15 0;
#X connect 15 0 9 0;
#X connect 16 0 17 0;
#X connect 17 0 20 0;
#X connect 17 1 21 0;
#X connect 18 0 19 0;
#X connect 18 0 22 0;
#X connect 19 0 17 1;
#X connect 20 0 11 0;
#X connect 21 0 10 0;
#X connect 22 0 16 1;
#X connect 23 0 12 0;
