#N canvas 757 122 547 295 10;
#X declare -path ../Data -path ../Effects -path ../Misc -path ../Signal
-path ../Sources -path ../Unity;
#X obj 22 266 outlet~ left;
#X obj 102 266 outlet~ right;
#X obj 22 13 declare -path ../Data -path ../Effects -path ../Misc -path
../Signal -path ../Sources -path ../Unity;
#X obj 22 46 inlet patterns;
#X obj 286 46 inlet messages;
#X obj 286 66 route Play Stop Step Sleep;
#X obj 22 123 noise~;
#X obj 223 123 noise~;
#X obj 22 163 ADSR~ 10 50 0.3 100 100;
#X obj 22 143 bp~ 200 0.1;
#X obj 222 143 bp~ 2500 0.5;
#X obj 222 163 ADSR~ 10 50;
#X obj 22 66 sel 0;
#X obj 49 86 t b f;
#X msg 157 103 10 \$1 0.3 100 100;
#X msg 285 103 10 \$1;
#X obj 22 183 *~ 0.25;
#X text 21 -6 Input: Decay (ms);
#X connect 3 0 12 0;
#X connect 4 0 5 0;
#X connect 6 0 9 0;
#X connect 7 0 10 0;
#X connect 8 0 16 0;
#X connect 9 0 8 0;
#X connect 10 0 11 0;
#X connect 11 0 16 0;
#X connect 12 1 13 0;
#X connect 13 0 8 1;
#X connect 13 0 11 1;
#X connect 13 1 14 0;
#X connect 13 1 15 0;
#X connect 14 0 8 1;
#X connect 15 0 11 1;
#X connect 16 0 0 0;
#X connect 16 0 1 0;
