#N canvas 200 300 1000 300 10;
#X obj 0 50 loadbang;
#X symbolatom 0 0 10 0 0 0 - ubus_receiveNameMain ubus_sendNameMain;
#X msg 0 70 symbol Main;
#X obj 0 90 s ubus_receiveNameMain;
#X obj 0 110 Internal/ubus~ Main;
#X obj 0 130 outlet~ Main_left;
#X obj 63 130 outlet~ Main_right;
#X symbolatom 110 0 10 0 0 0 - ubus_receiveNameCarry ubus_sendNameCarry;
#X msg 110 70 symbol Carry;
#X obj 110 90 s ubus_receiveNameCarry;
#X obj 110 110 Internal/ubus~ Carry;
#X obj 110 130 outlet~ Carry_left;
#X obj 173 130 outlet~ Carry_right;
#X symbolatom 220 0 10 0 0 0 - ubus_receiveNameTank ubus_sendNameTank;
#X msg 220 70 symbol Tank;
#X obj 220 90 s ubus_receiveNameTank;
#X obj 220 110 Internal/ubus~ Tank;
#X obj 220 130 outlet~ Tank_left;
#X obj 283 130 outlet~ Tank_right;
#X symbolatom 330 0 10 0 0 0 - ubus_receiveNameSupport ubus_sendNameSupport;
#X msg 330 70 symbol Support;
#X obj 330 90 s ubus_receiveNameSupport;
#X obj 330 110 Internal/ubus~ Support;
#X obj 330 130 outlet~ Support_left;
#X obj 393 130 outlet~ Support_right;
#X obj 440 130 outlet;
#X connect 0 0 2 0;
#X connect 2 0 3 0;
#X connect 4 0 5 0;
#X connect 4 1 6 0;
#X connect 0 0 8 0;
#X connect 8 0 9 0;
#X connect 10 0 11 0;
#X connect 10 1 12 0;
#X connect 0 0 14 0;
#X connect 14 0 15 0;
#X connect 16 0 17 0;
#X connect 16 1 18 0;
#X connect 0 0 20 0;
#X connect 20 0 21 0;
#X connect 22 0 23 0;
#X connect 22 1 24 0;
#X coords 0 -1 1 1 448 19 2 0 0;
