#N canvas 139 219 715 328 10;
#X declare -path ../Signal;
#X declare -path ../Signal;
#X declare -path ../Data -path ../Effects -path ../Misc -path ../Signal
-path ../Sources -path ../Unity;
#X declare -path ../Signal;
#X declare -path ../Signal;
#X declare -path ../Data -path ../Effects -path ../Misc -path ../Signal
-path ../Sources -path ../Unity;
#X declare -path ../Data -path ../Effects -path ../Misc -path ../Signal
-path ../Sources -path ../Unity;
#X declare -path ../Data -path ../Effects -path ../Misc -path ../Signal
-path ../Sources -path ../Unity;
#X declare -path ../Signal;
#X declare -path ../Signal;
#X declare -path ../Data -path ../Effects -path ../Misc -path ../Signal
-path ../Sources -path ../Unity;
#X declare -path ../Signal;
#X declare -path ../Signal;
#X declare -path ../Signal;
#X declare -path ../Signal;
#X declare -path ../Signal;
#X declare -path ../Signal;
#X declare -path ../Signal;
#X declare -path ../Signal;
#X declare -path ../Signal;
#X declare -path ../Signal;
#X declare -path ../Signal;
#X declare -path ../Signal;
#X declare -path ../Signal;
#X declare -path ../Signal;
#X declare -path ../Signal;
#X declare -path ../Signal;
#X declare -path ../Signal;
#X declare -path ../Signal;
#X declare -path ../Signal;
#X declare -path ../Signal;
#X declare -path ../Signal;
#X declare -path ../Data -path ../Effects -path ../Misc -path ../Signal
-path ../Sources -path ../Unity;
#X declare -path ../Signal;
#X declare -path ../Signal;
#X declare -path ../Signal;
#X declare -path ../Signal;
#X declare -path ../Signal;
#X declare -path ../Signal;
#X declare -path ../Signal;
#X declare -path ../Signal;
#X declare -path ../Signal;
#X declare -path ../Signal;
#X declare -path ../Signal;
#X declare -path ../Signal;
#X declare -path ../Signal;
#X declare -path ../Data -path ../Effects -path ../Misc -path ../Signal
-path ../Sources -path ../Unity;
#X declare -path ../Signal;
#X declare -path ../Signal;
#X declare -path ../Signal;
#X declare -path ../Signal;
#X declare -path ../Signal;
#X declare -path ../Signal;
#X declare -path ../Signal;
#X declare -path ../Signal;
#X declare -path ../Signal;
#X declare -path ../Signal;
#X declare -path ../Signal;
#X declare -path ../Signal;
#X declare -path ../Signal;
#X declare -path ../Data -path ../Effects -path ../Misc -path ../Signal
-path ../Sources -path ../Unity;
#X declare -path ../Signal;
#X declare -path ../Signal;
#X declare -path ../Signal;
#X declare -path ../Signal;
#X declare -path ../Signal;
#X declare -path ../Signal;
#X declare -path ../Signal;
#X declare -path ../Signal;
#X declare -path ../Signal;
#X declare -path ../Signal;
#X declare -path ../Signal;
#X declare -path ../Signal;
#X declare -path ../Signal;
#X declare -path ../Data;
#X declare -path ../Signal;
#X declare -path ../Signal;
#X declare -path Data -path Effects -path Misc -path Signal -path Sources
-path Unity -path Instruments;
#X declare -path ../Signal;
#X declare -path ../Data;
#X declare -path ../Data;
#X declare -path ../Signal;
#X declare -path ../Data;
#X declare -path ../Data;
#X declare -path ../Signal;
#X declare -path ../Signal;
#X obj 22 49 umixer~;
#X obj 22 76 usend~ Master;
#N canvas 547 343 450 300 instruments 1;
#N canvas 873 154 450 300 carry 0;
#X obj 137 129 square~;
#X obj 137 66 * 12;
#X obj 137 87 + 60;
#X obj 137 108 mtof;
#X obj 137 171 *~ 0.05;
#X obj 267 133 line~;
#X obj 17 149 *~;
#X msg 267 113 \$1 10;
#X obj 17 115 fm~;
#X obj 47 96 mtof;
#X obj 17 54 * 12;
#X obj 17 75 + 60;
#X obj 17 96 mtof;
#X obj 47 54 * 12;
#X obj 47 75 + 60;
#X obj 77 74 *~ 1000;
#X obj 137 149 *~;
#X obj 267 22 r trigger1;
#X obj 137 192 usend~ Carry;
#X obj 137 22 r y_axis1;
#X obj 202 22 r x_axis1;
#X connect 0 0 16 0;
#X connect 1 0 2 0;
#X connect 2 0 3 0;
#X connect 3 0 0 0;
#X connect 4 0 18 0;
#X connect 4 0 18 1;
#X connect 5 0 6 1;
#X connect 5 0 16 1;
#X connect 6 0 4 0;
#X connect 7 0 5 0;
#X connect 8 0 6 0;
#X connect 9 0 8 1;
#X connect 10 0 11 0;
#X connect 11 0 12 0;
#X connect 12 0 8 0;
#X connect 13 0 14 0;
#X connect 14 0 9 0;
#X connect 15 0 8 2;
#X connect 16 0 4 0;
#X connect 17 0 7 0;
#X connect 19 0 1 0;
#X connect 19 0 10 0;
#X connect 20 0 0 1;
#X connect 20 0 13 0;
#X connect 20 0 15 0;
#X restore 22 22 pd carry;
#N canvas 84 157 450 396 tank 0;
#X obj 101 298 kick;
#X obj 32 64 r x_axis2;
#X obj 116 64 r y_axis2;
#X obj 17 298 snare;
#X obj 60 298 hihat;
#X obj 215 65 r trigger2;
#X obj 17 144 f;
#X obj 101 144 f;
#X obj 17 258 sel 1;
#X obj 60 258 sel 1;
#X obj 101 258 sel 1;
#X obj 144 258 sel 1;
#X obj 17 346 usend~ Tank;
#X obj 60 238 > 0;
#X obj 144 238 > 0;
#X obj 101 238 < 0;
#X obj 17 238 < 0;
#X obj 215 87 change;
#X obj 215 107 sel 1;
#X obj 50 181 >;
#X obj 134 198 oneMinus;
#X obj 17 218 spigot;
#X obj 101 218 spigot;
#X obj 50 161 abs;
#X msg 242 201 0;
#X obj 215 127 t b b b b;
#X obj 75 161 abs;
#X obj 215 309 line~;
#X obj 17 325 *~;
#X obj 80 325 *~;
#X msg 215 289 \$1 10;
#X msg 144 278 1000;
#X msg 60 278 30;
#X msg 101 278 75;
#X msg 17 278 200;
#X obj 144 298 crash;
#X connect 0 0 28 0;
#X connect 0 1 29 0;
#X connect 1 0 6 1;
#X connect 2 0 7 1;
#X connect 3 0 28 0;
#X connect 3 1 29 0;
#X connect 4 0 28 0;
#X connect 4 1 29 0;
#X connect 5 0 17 0;
#X connect 5 0 30 0;
#X connect 6 0 23 0;
#X connect 6 0 21 0;
#X connect 7 0 22 0;
#X connect 7 0 26 0;
#X connect 8 0 34 0;
#X connect 9 0 32 0;
#X connect 10 0 33 0;
#X connect 11 0 31 0;
#X connect 13 0 9 0;
#X connect 14 0 11 0;
#X connect 15 0 10 0;
#X connect 16 0 8 0;
#X connect 17 0 18 0;
#X connect 18 0 25 0;
#X connect 18 1 24 0;
#X connect 19 0 20 0;
#X connect 19 0 21 1;
#X connect 20 0 22 1;
#X connect 21 0 16 0;
#X connect 21 0 13 0;
#X connect 22 0 15 0;
#X connect 22 0 14 0;
#X connect 23 0 19 0;
#X connect 24 0 22 1;
#X connect 24 0 21 1;
#X connect 25 0 7 0;
#X connect 25 0 6 0;
#X connect 25 1 6 0;
#X connect 25 2 7 0;
#X connect 25 3 24 0;
#X connect 26 0 19 1;
#X connect 27 0 29 1;
#X connect 27 0 28 1;
#X connect 28 0 12 0;
#X connect 29 0 12 1;
#X connect 30 0 27 0;
#X connect 31 0 35 0;
#X connect 32 0 4 0;
#X connect 33 0 0 0;
#X connect 34 0 3 0;
#X connect 35 0 28 0;
#X connect 35 1 29 0;
#X restore 22 45 pd tank;
#N canvas 132 164 639 329 support 0;
#X obj 20 163 pad;
#X obj 20 53 r x_axis3;
#X obj 90 53 r y_axis3;
#X obj 490 23 r trigger3;
#X obj 490 44 change;
#X obj 490 65 sel 0;
#X obj 490 86 f;
#X obj 515 86 + 1;
#X obj 515 107 % 4;
#X obj 490 127 sel 0 1 2 3;
#X obj 20 144 spigot;
#X msg 85 144 1;
#X msg 62 144 0;
#X obj 110 144 spigot;
#X msg 175 144 1;
#X msg 152 144 0;
#X obj 210 144 spigot;
#X msg 275 144 1;
#X msg 252 144 0;
#X obj 310 144 spigot;
#X msg 375 144 1;
#X msg 352 144 0;
#X obj 436 70 < -0.75;
#X obj 436 90 sel 1;
#X msg 436 110 5;
#X msg 436 146 -1000;
#X obj 90 110 * 12;
#X obj 20 127 +;
#X obj 90 72 * 2;
#X obj 90 91 int;
#X obj 20 72 + 1;
#X obj 20 91 * 6;
#X obj 20 304 usend~ Support;
#X obj 20 110 int;
#X obj 20 193 tremolo~ 0.23 0.3;
#X obj 34 212 tremolo~ 0.31 0.3;
#X obj 110 233 tremolo~ 0.41 0.3;
#X obj 125 253 tremolo~ 0.19 0.3;
#X obj 210 193 tremolo~ 0.28 0.3;
#X obj 225 213 tremolo~ 0.51 0.3;
#X obj 310 233 tremolo~ 0.17 0.3;
#X obj 325 253 tremolo~ 0.61 0.3;
#X obj 110 163 pad;
#X obj 210 163 pad;
#X obj 310 163 pad;
#X connect 0 0 34 0;
#X connect 0 1 35 0;
#X connect 1 0 30 0;
#X connect 2 0 22 0;
#X connect 2 0 28 0;
#X connect 3 0 4 0;
#X connect 4 0 5 0;
#X connect 5 0 6 0;
#X connect 6 0 7 0;
#X connect 6 0 9 0;
#X connect 7 0 8 0;
#X connect 8 0 6 1;
#X connect 9 0 11 0;
#X connect 9 0 15 0;
#X connect 9 0 18 0;
#X connect 9 0 21 0;
#X connect 9 1 12 0;
#X connect 9 1 14 0;
#X connect 9 2 12 0;
#X connect 9 2 17 0;
#X connect 9 2 21 0;
#X connect 9 2 15 0;
#X connect 9 3 12 0;
#X connect 9 4 21 0;
#X connect 9 4 18 0;
#X connect 9 4 15 0;
#X connect 9 4 12 0;
#X connect 10 0 0 0;
#X connect 11 0 10 1;
#X connect 12 0 10 1;
#X connect 13 0 42 0;
#X connect 14 0 13 1;
#X connect 15 0 13 1;
#X connect 16 0 43 0;
#X connect 17 0 16 1;
#X connect 18 0 16 1;
#X connect 19 0 44 0;
#X connect 20 0 19 1;
#X connect 21 0 19 1;
#X connect 22 0 23 0;
#X connect 23 0 24 0;
#X connect 24 0 9 0;
#X connect 24 0 25 0;
#X connect 25 0 0 0;
#X connect 25 0 42 0;
#X connect 25 0 43 0;
#X connect 25 0 44 0;
#X connect 26 0 27 1;
#X connect 27 0 10 0;
#X connect 27 0 13 0;
#X connect 27 0 16 0;
#X connect 27 0 19 0;
#X connect 28 0 29 0;
#X connect 29 0 26 0;
#X connect 30 0 31 0;
#X connect 31 0 33 0;
#X connect 33 0 27 0;
#X connect 34 0 32 0;
#X connect 35 0 32 1;
#X connect 36 0 32 0;
#X connect 37 0 32 1;
#X connect 38 0 32 0;
#X connect 39 0 32 1;
#X connect 40 0 32 0;
#X connect 41 0 32 1;
#X connect 42 0 36 0;
#X connect 42 1 37 0;
#X connect 43 0 38 0;
#X connect 43 1 39 0;
#X connect 44 0 40 0;
#X connect 44 1 41 0;
#X restore 22 68 pd support;
#N canvas 862 141 450 300 jungler 0;
#X obj 26 24 adc~;
#X obj 57 24 r x_axis4;
#X obj 149 24 r y_axis4;
#X obj 218 24 r trigger4;
#X obj 26 124 pitchshifter~ 0 64 16;
#X obj 149 44 * 12;
#X obj 57 44 + 1;
#X obj 57 104 line;
#X msg 57 84 \$1 50;
#X obj 149 84 line;
#X msg 149 64 \$1 50;
#X obj 25 224 blend~;
#X obj 218 188 line~;
#X msg 218 168 \$1 10;
#X obj 57 64 * 100;
#X obj 25 184 reverb~ 0.5 0.25;
#X obj 41 164 tremolo~ 50 5;
#X obj 134 164 / 4;
#X obj 218 44 * 2;
#X obj 218 64 - 1;
#X obj 165 147 + 1;
#X obj 165 167 * 3;
#X obj 25 204 phaser~ 1 3;
#X obj 165 187 pack f f;
#X obj 25 244 usend~ Jungler;
#X connect 0 0 4 0;
#X connect 0 0 15 0;
#X connect 1 0 6 0;
#X connect 2 0 5 0;
#X connect 2 0 23 1;
#X connect 2 0 20 0;
#X connect 3 0 18 0;
#X connect 4 0 16 0;
#X connect 5 0 10 0;
#X connect 6 0 14 0;
#X connect 6 0 17 0;
#X connect 7 0 16 1;
#X connect 8 0 7 0;
#X connect 9 0 4 1;
#X connect 10 0 9 0;
#X connect 11 0 24 0;
#X connect 11 0 24 1;
#X connect 12 0 11 2;
#X connect 13 0 12 0;
#X connect 14 0 8 0;
#X connect 15 0 22 0;
#X connect 16 0 11 0;
#X connect 17 0 15 1;
#X connect 18 0 19 0;
#X connect 19 0 13 0;
#X connect 20 0 21 0;
#X connect 21 0 23 0;
#X connect 22 0 11 1;
#X connect 23 0 22 1;
#X restore 22 91 pd jungler;
#X restore 371 13 pd instruments;
#X obj 22 13 declare -path Data -path Effects -path Misc -path Signal
-path Sources -path Unity -path Instruments;
#N canvas 498 306 450 300 CarryFX 0;
#X obj 61 48 inlet~;
#X obj 111 48 inlet~;
#X obj 62 75 echo~ 120 0.7;
#X obj 62 96 usend~ Main;
#X obj 151 75 echo~ 112 0.6;
#X connect 0 0 2 0;
#X connect 1 0 4 0;
#X connect 2 0 3 0;
#X connect 4 0 3 1;
#X restore 132 75 pd CarryFX;
#N canvas 605 340 372 200 TankFX 0;
#X obj 21 18 inlet~;
#X obj 154 18 inlet~;
#X obj 20 147 usend~ Main;
#X obj 21 87 flanger~ 1 3;
#X obj 154 67 clip~ -0.1 0.1;
#X obj 21 67 clip~ -0.1 0.1;
#X obj 187 107 reverb~ 0.25 0.3;
#X obj 54 107 reverb~ 0.25 0.3;
#X obj 20 127 blend~ -0.75;
#X obj 153 127 blend~ -0.75;
#X obj 154 47 *~ 30;
#X obj 21 47 *~ 30;
#X obj 154 87 phaser~ 0.9 1;
#X connect 0 0 11 0;
#X connect 1 0 10 0;
#X connect 3 0 7 0;
#X connect 3 0 8 0;
#X connect 4 0 12 0;
#X connect 5 0 3 0;
#X connect 6 0 9 1;
#X connect 7 0 8 1;
#X connect 8 0 2 0;
#X connect 9 0 2 1;
#X connect 10 0 4 0;
#X connect 11 0 5 0;
#X connect 12 0 6 0;
#X connect 12 0 9 0;
#X restore 242 75 pd TankFX;
#N canvas 654 209 450 300 SupportFX 1;
#X obj 31 28 inlet~;
#X obj 81 28 inlet~;
#X obj 31 156 usend~ Main;
#X obj 31 90 reverb~ 0.42 0.5;
#X obj 122 110 reverb~ 0.39 0.6;
#X obj 122 135 lop~ 1000;
#X obj 31 135 lop~ 1000;
#X obj 31 70 phaser~ 0.5 3;
#X obj 122 70 phaser~ 0.7 2.8;
#X connect 0 0 7 0;
#X connect 1 0 8 0;
#X connect 3 0 6 0;
#X connect 4 0 5 0;
#X connect 5 0 2 1;
#X connect 6 0 2 0;
#X connect 7 0 3 0;
#X connect 8 0 4 0;
#X restore 352 75 pd SupportFX;
#N canvas 365 445 450 300 JunglerFX 0;
#X obj 31 28 inlet~;
#X obj 81 28 inlet~;
#X obj 31 76 usend~ Main;
#X connect 0 0 2 0;
#X connect 1 0 2 1;
#X restore 462 75 pd JunglerFX;
#X connect 0 0 1 0;
#X connect 0 1 1 1;
#X connect 0 2 4 0;
#X connect 0 3 4 1;
#X connect 0 4 5 0;
#X connect 0 5 5 1;
#X connect 0 6 6 0;
#X connect 0 7 6 1;
#X connect 0 8 7 0;
#X connect 0 9 7 1;
