#N canvas 139 219 715 328 10;
#X declare -path ../Signal;
#X declare -path ../Signal;
#X declare -path ../Data -path ../Effects -path ../Misc -path ../Signal
-path ../Sources -path ../Unity;
#X declare -path ../Signal;
#X declare -path ../Signal;
#X declare -path ../Data -path ../Effects -path ../Misc -path ../Signal
-path ../Sources -path ../Unity;
#X declare -path ../Data -path ../Effects -path ../Misc -path ../Signal
-path ../Sources -path ../Unity;
#X declare -path ../Data -path ../Effects -path ../Misc -path ../Signal
-path ../Sources -path ../Unity;
#X declare -path ../Data -path ../Effects -path ../Misc -path ../Signal
-path ../Sources -path ../Unity;
#X declare -path Data -path Effects -path Misc -path Signal -path Sources
-path Unity -path Instruments;
#X obj 22 49 umixer~;
#X obj 132 75 echo~ 120 0.7;
#X obj 221 75 echo~ 112 0.6;
#X obj 22 76 usend~ Master;
#X obj 132 96 usend~ Main;
#N canvas 547 343 450 300 instruments 1;
#N canvas 873 154 450 300 carry 1;
#X obj 137 129 square~;
#X obj 137 66 * 12;
#X obj 137 87 + 60;
#X obj 137 108 mtof;
#X obj 137 171 *~ 0.05;
#X obj 267 133 line~;
#X obj 17 149 *~;
#X msg 267 113 \$1 10;
#X obj 17 115 fm~;
#X obj 47 96 mtof;
#X obj 17 54 * 12;
#X obj 17 75 + 60;
#X obj 17 96 mtof;
#X obj 47 54 * 12;
#X obj 47 75 + 60;
#X obj 77 74 *~ 1000;
#X obj 137 149 *~;
#X obj 137 22 r x_axis1;
#X obj 202 22 r y_axis1;
#X obj 267 22 r trigger1;
#X obj 137 192 usend~ Carry;
#X connect 0 0 16 0;
#X connect 1 0 2 0;
#X connect 2 0 3 0;
#X connect 3 0 0 0;
#X connect 4 0 20 0;
#X connect 4 0 20 1;
#X connect 5 0 6 1;
#X connect 5 0 16 1;
#X connect 6 0 4 0;
#X connect 7 0 5 0;
#X connect 8 0 6 0;
#X connect 9 0 8 1;
#X connect 10 0 11 0;
#X connect 11 0 12 0;
#X connect 12 0 8 0;
#X connect 13 0 14 0;
#X connect 14 0 9 0;
#X connect 15 0 8 2;
#X connect 16 0 4 0;
#X connect 17 0 1 0;
#X connect 17 0 10 0;
#X connect 18 0 0 1;
#X connect 18 0 13 0;
#X connect 18 0 15 0;
#X connect 19 0 7 0;
#X restore 22 22 pd carry;
#N canvas 716 296 450 300 tank 1;
#X obj 173 224 kick;
#X obj 32 64 r x_axis2;
#X obj 116 64 r y_axis2;
#X obj 75 111 > 0.5;
#X obj 32 111 <= 0.5;
#X obj 32 131 sel 1;
#X obj 75 131 sel 1;
#X obj 32 171 snare;
#X obj 75 171 hihat;
#X obj 159 111 > 0.5;
#X obj 116 111 <= 0.5;
#X obj 116 131 sel 1;
#X obj 159 131 sel 1;
#X obj 116 171 snare;
#X obj 159 171 hihat;
#X msg 32 151 200;
#X connect 1 0 4 0;
#X connect 1 0 3 0;
#X connect 2 0 10 0;
#X connect 2 0 9 0;
#X connect 3 0 6 0;
#X connect 4 0 5 0;
#X connect 5 0 15 0;
#X connect 6 0 8 0;
#X connect 9 0 12 0;
#X connect 10 0 11 0;
#X connect 11 0 13 0;
#X connect 12 0 14 0;
#X connect 15 0 7 0;
#X restore 47 71 pd tank;
#X restore 561 173 pd instruments;
#X obj 22 13 declare -path Data -path Effects -path Misc -path Signal
-path Sources -path Unity -path Instruments;
#X connect 0 0 3 0;
#X connect 0 1 3 1;
#X connect 0 2 1 0;
#X connect 0 3 2 0;
#X connect 1 0 4 0;
#X connect 2 0 4 1;
