#N canvas 139 219 715 328 10;
#X declare -path ../Signal;
#X declare -path ../Signal;
#X declare -path ../Data -path ../Effects -path ../Misc -path ../Signal
-path ../Sources -path ../Unity;
#X declare -path ../Signal;
#X declare -path ../Signal;
#X declare -path ../Data -path ../Effects -path ../Misc -path ../Signal
-path ../Sources -path ../Unity;
#X declare -path ../Data -path ../Effects -path ../Misc -path ../Signal
-path ../Sources -path ../Unity;
#X declare -path ../Data -path ../Effects -path ../Misc -path ../Signal
-path ../Sources -path ../Unity;
#X declare -path Data -path Effects -path Misc -path Signal -path Sources
-path Unity -path Instruments;
#X obj 22 49 umixer~;
#X obj 22 76 usend~ Master;
#N canvas 547 343 450 300 instruments 1;
#N canvas 873 154 450 300 carry 1;
#X obj 137 129 square~;
#X obj 137 66 * 12;
#X obj 137 87 + 60;
#X obj 137 108 mtof;
#X obj 137 171 *~ 0.05;
#X obj 267 133 line~;
#X obj 17 149 *~;
#X msg 267 113 \$1 10;
#X obj 17 115 fm~;
#X obj 47 96 mtof;
#X obj 17 54 * 12;
#X obj 17 75 + 60;
#X obj 17 96 mtof;
#X obj 47 54 * 12;
#X obj 47 75 + 60;
#X obj 77 74 *~ 1000;
#X obj 137 149 *~;
#X obj 137 22 r x_axis1;
#X obj 202 22 r y_axis1;
#X obj 267 22 r trigger1;
#X obj 137 192 usend~ Carry;
#X connect 0 0 16 0;
#X connect 1 0 2 0;
#X connect 2 0 3 0;
#X connect 3 0 0 0;
#X connect 4 0 20 0;
#X connect 4 0 20 1;
#X connect 5 0 6 1;
#X connect 5 0 16 1;
#X connect 6 0 4 0;
#X connect 7 0 5 0;
#X connect 8 0 6 0;
#X connect 9 0 8 1;
#X connect 10 0 11 0;
#X connect 11 0 12 0;
#X connect 12 0 8 0;
#X connect 13 0 14 0;
#X connect 14 0 9 0;
#X connect 15 0 8 2;
#X connect 16 0 4 0;
#X connect 17 0 1 0;
#X connect 17 0 10 0;
#X connect 18 0 0 1;
#X connect 18 0 13 0;
#X connect 18 0 15 0;
#X connect 19 0 7 0;
#X restore 22 22 pd carry;
#N canvas 84 157 450 366 tank 1;
#X obj 101 298 kick;
#X obj 32 64 r x_axis2;
#X obj 116 64 r y_axis2;
#X obj 17 298 snare;
#X obj 60 298 hihat;
#X obj 144 298 hihat;
#X obj 215 65 r trigger2;
#X obj 17 144 f;
#X obj 101 144 f;
#X obj 17 258 sel 1;
#X obj 60 258 sel 1;
#X obj 101 258 sel 1;
#X obj 144 258 sel 1;
#X msg 17 278 300;
#X msg 60 278 50;
#X msg 101 278 50;
#X msg 144 278 50;
#X obj 17 319 usend~ Tank;
#X obj 60 238 > 0;
#X obj 144 238 > 0;
#X obj 101 238 < 0;
#X obj 17 238 < 0;
#X obj 215 88 change;
#X obj 215 107 sel 1;
#X obj 215 127 t b b b;
#X obj 57 181 >;
#X obj 134 198 oneMinus;
#X obj 17 218 spigot;
#X obj 101 218 spigot;
#X obj 57 161 abs;
#X connect 0 0 17 0;
#X connect 0 1 17 1;
#X connect 1 0 7 1;
#X connect 2 0 8 1;
#X connect 3 0 17 0;
#X connect 3 1 17 1;
#X connect 4 0 17 0;
#X connect 4 1 17 1;
#X connect 6 0 22 0;
#X connect 7 0 27 0;
#X connect 7 0 29 0;
#X connect 8 0 29 0;
#X connect 9 0 13 0;
#X connect 10 0 14 0;
#X connect 11 0 15 0;
#X connect 12 0 16 0;
#X connect 13 0 3 0;
#X connect 14 0 4 0;
#X connect 15 0 0 0;
#X connect 16 0 5 0;
#X connect 18 0 10 0;
#X connect 19 0 12 0;
#X connect 20 0 11 0;
#X connect 21 0 9 0;
#X connect 22 0 23 0;
#X connect 23 0 24 0;
#X connect 24 1 7 0;
#X connect 24 2 8 0;
#X connect 25 0 26 0;
#X connect 25 0 27 1;
#X connect 26 0 28 1;
#X connect 27 0 21 0;
#X connect 27 0 18 0;
#X connect 28 0 20 0;
#X connect 28 0 19 0;
#X connect 29 0 25 0;
#X restore 22 45 pd tank;
#X restore 371 13 pd instruments;
#X obj 22 13 declare -path Data -path Effects -path Misc -path Signal
-path Sources -path Unity -path Instruments;
#N canvas 498 306 450 300 CarryFX 0;
#X obj 61 48 inlet~;
#X obj 111 48 inlet~;
#X obj 62 75 echo~ 120 0.7;
#X obj 62 96 usend~ Main;
#X obj 151 75 echo~ 112 0.6;
#X connect 0 0 2 0;
#X connect 1 0 4 0;
#X connect 2 0 3 0;
#X connect 4 0 3 1;
#X restore 132 75 pd CarryFX;
#N canvas 365 338 450 300 TankFX 0;
#X obj 31 28 inlet~;
#X obj 81 28 inlet~;
#X obj 31 76 usend~ Main;
#X connect 0 0 2 0;
#X connect 1 0 2 1;
#X restore 242 75 pd TankFX;
#N canvas 365 445 450 300 SupportFX 0;
#X obj 31 28 inlet~;
#X obj 81 28 inlet~;
#X obj 31 76 usend~ Main;
#X connect 0 0 2 0;
#X connect 1 0 2 1;
#X restore 352 75 pd SupportFX;
#X connect 0 0 1 0;
#X connect 0 1 1 1;
#X connect 0 2 4 0;
#X connect 0 3 4 1;
#X connect 0 4 5 0;
#X connect 0 5 5 1;
#X connect 0 6 6 0;
#X connect 0 7 6 1;
