#N canvas 139 219 715 328 10;
#X declare -path Data -path Effects -path Misc -path Signal -path Sources
-path Unity;
#X declare -path ../Signal;
#X declare -path ../Signal;
#X obj 22 49 umixer~;
#X obj 22 13 declare -path Data -path Effects -path Misc -path Signal
-path Sources -path Unity;
#X obj 277 112 r x_axis;
#X obj 332 112 r y_axis;
#X obj 277 219 square~;
#X obj 277 156 * 12;
#X obj 277 177 + 60;
#X obj 277 198 mtof;
#X obj 277 282 usend~ Master;
#X obj 277 261 *~ 0.05;
#X obj 387 112 r trigger;
#X obj 387 223 line~;
#X obj 277 239 *~;
#X msg 387 203 \$1 10;
#X obj 153 205 fm~;
#X obj 177 156 * 12;
#X obj 177 177 + 60;
#X obj 177 198 mtof;
#X connect 2 0 5 0;
#X connect 3 0 4 1;
#X connect 4 0 12 0;
#X connect 5 0 6 0;
#X connect 6 0 7 0;
#X connect 7 0 4 0;
#X connect 9 0 8 0;
#X connect 9 0 8 1;
#X connect 10 0 13 0;
#X connect 11 0 12 1;
#X connect 12 0 9 0;
#X connect 13 0 11 0;
#X connect 15 0 16 0;
#X connect 16 0 17 0;
